<?xml version="1.0" standalone="no"?>
<!DOCTYPE svg PUBLIC "-//W3C//DTD SVG 20010904//EN"
 "http://www.w3.org/TR/2001/REC-SVG-20010904/DTD/svg10.dtd">
<svg version="1.0" xmlns="http://www.w3.org/2000/svg"
 width="70.000000pt" height="70.000000pt" viewBox="0 0 70.000000 70.000000"
 preserveAspectRatio="xMidYMid meet">
<metadata>
Created by potrace 1.14, written by Peter Selinger 2001-2017
</metadata>
<g transform="translate(0.000000,70.000000) scale(0.100000,-0.100000)"
fill="#000000" stroke="none">
<path d="M0 350 l0 -350 350 0 350 0 0 350 0 350 -350 0 -350 0 0 -350z m243
148 c8 -24 35 -100 61 -170 l45 -128 -38 0 c-36 0 -39 2 -50 40 l-12 40 -64 0
-64 0 -12 -40 c-11 -38 -14 -40 -50 -40 l-38 0 35 98 c19 53 46 130 61 170
l26 72 42 0 c42 0 44 -1 58 -42z m329 32 c66 -19 88 -81 44 -125 l-23 -23 25
-19 c19 -15 25 -27 25 -61 0 -74 -47 -102 -173 -102 l-80 0 0 170 0 170 73 0
c39 0 89 -5 109 -10z"/>
<path d="M166 423 c-10 -32 -21 -64 -23 -70 -4 -9 8 -13 42 -13 34 0 46 4 42
13 -2 6 -12 38 -21 70 -9 31 -18 57 -19 57 -2 0 -11 -26 -21 -57z"/>
<path d="M460 445 c0 -35 0 -35 45 -35 49 0 71 21 54 52 -7 13 -22 18 -54 18
-45 0 -45 0 -45 -35z"/>
<path d="M460 305 l0 -45 43 0 c47 0 67 13 67 45 0 32 -20 45 -67 45 l-43 0 0
-45z"/>
</g>
</svg>
